# xmcd
# 
# Track frame offsets:
#     150
#     14547
#     28336
#     41673
#     54332
#     67457
#     79616
#     92214
#     105494
#     118805
#     130122
#     140880
# 
# Disc length: 2019
# 
# Revision: 2
# Processed by: cddbd v1.5.2PL0 Copyright (c) Steve Scherf et al.
# Submitted via: fre:ac v1.0.17
# 
DISCID=b007e10c
DTITLE=Legendary Country (Various) - Early Country Classics
DYEAR=0
DGENRE=Country
TTITLE0=The Carter Family - Wildwood Flower
TTITLE1=Jimmie Rodgers - I'm Free From The Chain Gang Now
TTITLE2=The Rouse Brothers - Orange Blossom Special
TTITLE3=Uncle Dave Macon - Cumberland Mountain Deer Race
TTITLE4=Hank Williams - Jambalaya (On The Bayou)
TTITLE5=Ted Daffan's Texans - Headin' Down The Wrong Highway
TTITLE6=Al Dexter - Pistol Packin' Mama
TTITLE7=Joe Maphis and Rose Lee - Dim Lights, Thick Smoke (And Loud, Loud Music)
TTITLE8=Hank Thompson - The Wild Side Of Life
TTITLE9=Kitty Wells - It Wasn't God Who Made Honkey Tonk Angels
TTITLE10=Patsy Cline - Honky Tonk Merry Go Round
TTITLE11=Webb Pierce - In The Jailhouse Now
EXTD=Legendary Country, disc 1 of 4, 2006, Direct Source Special Products Inc
EXTT0=
EXTT1=
EXTT2=
EXTT3=
EXTT4=
EXTT5=
EXTT6=
EXTT7=
EXTT8=
EXTT9=
EXTT10=
EXTT11=
PLAYORDER=
